<svg width="16" height="16" viewBox="0 0 16 16" fill="none" xmlns="http://www.w3.org/2000/svg">
<path d="M14.9792 7.85912V2.83018C14.9792 1.60693 13.9841 0.611778 12.7608 0.611778H3.17537C1.95212 0.611778 0.956969 1.60697 0.956969 2.83018V7.924C0.364469 8.54343 0 9.38272 0 10.3055V14.1187C0 14.8187 0.569469 15.3882 1.26947 15.3882C1.96944 15.3882 2.53891 14.8187 2.53891 14.1187V13.7249H13.4611V14.1187C13.4611 14.8187 14.0306 15.3882 14.7306 15.3882C15.4305 15.3882 16 14.8187 16 14.1187V10.3055C16 9.35006 15.6093 8.48418 14.9792 7.85912ZM3.17537 1.23678H12.7608C13.6395 1.23678 14.3542 1.95159 14.3542 2.83018V7.36728C14.1616 7.24861 13.9577 7.14926 13.7455 7.07068V6.0315C13.7455 5.11025 12.996 4.36075 12.0748 4.36075H9.35828C8.79903 4.36075 8.30344 4.63722 8.00003 5.06037C7.69663 4.63722 7.20103 4.36075 6.64178 4.36075H3.92528C3.00403 4.36075 2.25453 5.11022 2.25453 6.0315V7.07068C2.01871 7.15801 1.79319 7.27095 1.582 7.40747V2.83018C1.58197 1.95159 2.29675 1.23678 3.17537 1.23678ZM3.44791 6.85762C3.25431 6.85762 3.06444 6.87393 2.87947 6.90475V6.0315C2.87947 5.45487 3.34859 4.98575 3.92522 4.98575H6.64172C7.21834 4.98575 7.68747 5.45487 7.68747 6.0315V6.85765H3.44791V6.85762ZM8.3125 6.03147C8.3125 5.45484 8.78162 4.98572 9.35825 4.98572H12.0747C12.6514 4.98572 13.1205 5.45484 13.1205 6.03147V6.90472C12.9326 6.87338 12.7425 6.85762 12.5521 6.85759H8.3125V6.03147ZM3.44791 7.48262H12.5521C14.1086 7.48262 15.375 8.74897 15.375 10.3055V11.2326H12.2407C12.0681 11.2326 11.9282 11.3726 11.9282 11.5451C11.9282 11.7177 12.0681 11.8576 12.2407 11.8576H15.375V13.1H0.625V11.8576H9.11572C9.28831 11.8576 9.42822 11.7177 9.42822 11.5451C9.42822 11.3726 9.28831 11.2326 9.11572 11.2326H0.625V10.3055C0.625 8.74897 1.89134 7.48262 3.44791 7.48262ZM1.91391 14.1187C1.91391 14.4741 1.62481 14.7632 1.26947 14.7632C0.914125 14.7632 0.625 14.4741 0.625 14.1187V13.7249H1.91391V14.1187ZM14.7305 14.7632C14.3752 14.7632 14.0861 14.4741 14.0861 14.1187V13.7249H15.375V14.1187C15.375 14.4741 15.0859 14.7632 14.7305 14.7632Z" fill="#202020"/>
</svg>
