<svg width="16" height="15" viewBox="0 0 16 15" fill="none" xmlns="http://www.w3.org/2000/svg">
<path d="M2.66649 4.33333H1.99982M13.9998 4.33333H13.3332M7.99982 0.999999V2.33333M6.99982 2.33333H8.99982M3.99982 9H5.99982M9.99982 9H11.9998M10.3398 0.886665H5.65982C3.99982 0.886665 3.63316 1.71333 3.41982 2.72667L2.66649 6.33333H13.3332L12.5798 2.72667C12.3665 1.71333 11.9998 0.886665 10.3398 0.886665ZM14.6598 12.2133C14.7332 12.9933 14.1065 13.6667 13.3065 13.6667H12.0532C11.3332 13.6667 11.2332 13.36 11.1065 12.98L10.9732 12.58C10.7865 12.0333 10.6665 11.6667 9.70649 11.6667H6.29316C5.33316 11.6667 5.19316 12.08 5.02649 12.58L4.89316 12.98C4.76649 13.36 4.66649 13.6667 3.94649 13.6667H2.69316C1.89316 13.6667 1.26649 12.9933 1.33982 12.2133L1.71316 8.15333C1.80649 7.15333 1.99982 6.33333 3.74649 6.33333H12.2532C13.9998 6.33333 14.1932 7.15333 14.2865 8.15333L14.6598 12.2133Z" stroke="#202020" stroke-linecap="round" stroke-linejoin="round"/>
</svg>
