<svg width="20" height="20" viewBox="0 0 20 20" fill="none" xmlns="http://www.w3.org/2000/svg">
<path d="M15.5501 12.275H12.5917M14.0667 10.8333V13.7917M18.0251 12.2917C18.0251 13.0333 17.8167 13.7333 17.4501 14.3333C17.1013 14.9192 16.6058 15.4041 16.0125 15.7402C15.4192 16.0763 14.7486 16.252 14.0667 16.25C13.3852 16.2503 12.7153 16.0738 12.1223 15.7379C11.5293 15.402 11.0335 14.918 10.6834 14.3333C10.306 13.7193 10.1069 13.0124 10.1084 12.2917C10.1084 10.1083 11.8834 8.33333 14.0667 8.33333C16.2501 8.33333 18.0251 10.1083 18.0251 12.2917Z" stroke="#233F73" stroke-width="1.5" stroke-miterlimit="10" stroke-linecap="round" stroke-linejoin="round"/>
<path d="M17.2421 3.35001V5.2C17.2421 5.875 16.8171 6.71667 16.4005 7.14167L14.9338 8.43334C14.6499 8.36579 14.359 8.33222 14.0671 8.33334C11.8838 8.33334 10.1088 10.1083 10.1088 12.2917C10.1088 13.0333 10.3171 13.7333 10.6838 14.3333C10.9921 14.85 11.4171 15.2917 11.9338 15.6083V15.8917C11.9338 16.4 11.6005 17.075 11.1755 17.325L10.0005 18.0833C8.90879 18.7583 7.39212 18 7.39212 16.65V12.1917C7.39212 11.6 7.05046 10.8417 6.71712 10.425L3.51712 7.05834C3.10046 6.63334 2.75879 5.875 2.75879 5.375V3.43334C2.75879 2.425 3.51712 1.66667 4.44212 1.66667H15.5588C16.4838 1.66667 17.2421 2.42501 17.2421 3.35001Z" stroke="#233F73" stroke-width="1.5" stroke-miterlimit="10" stroke-linecap="round" stroke-linejoin="round"/>
</svg>
