<svg width="28" height="23" viewBox="0 0 28 23" fill="none" xmlns="http://www.w3.org/2000/svg">
<path fill-rule="evenodd" clip-rule="evenodd" d="M25.099 16.3911V14.0615C25.6823 13.9565 26.2098 13.6488 26.5883 13.1928C26.9668 12.7368 27.1721 12.1617 27.1679 11.569C27.166 11.238 27.0978 10.9106 26.9674 10.6063C26.837 10.302 26.6469 10.0269 26.4085 9.79716L17.5829 1.10063C17.1088 0.634855 16.4706 0.374221 15.806 0.375002L15.8017 0.379221C15.1397 0.37819 14.5037 0.636557 14.0299 1.09894L12.9608 2.14688C12.7776 1.86257 12.5261 1.62868 12.2293 1.46655C11.9325 1.30443 11.5998 1.21923 11.2615 1.21875H9.41372C8.87395 1.22009 8.35675 1.43545 7.97555 1.8176C7.59435 2.19975 7.38028 2.71748 7.38028 3.25725V7.64475L5.16713 9.825C4.83632 10.1513 4.60249 10.563 4.49161 11.0142C4.38073 11.4655 4.39716 11.9386 4.53905 12.3811C4.68095 12.8236 4.94276 13.218 5.29539 13.5206C5.64802 13.8232 6.07765 14.0221 6.53653 14.0952V20.625H5.69278V14.7331C4.93912 14.4342 4.3192 13.8725 3.9477 13.1518C3.57621 12.4311 3.47827 11.6003 3.672 10.813C3.82111 10.2105 4.1335 9.66075 4.57481 9.22425L6.53653 7.29206V5.4375C5.00597 5.46535 3.77156 6.73856 3.77156 8.30203H3.70322C2.295 8.30203 1.14413 9.46303 1.14413 10.9042V11.4374C1.14413 11.9698 1.30781 12.4676 1.57444 12.887C1.15423 13.1357 0.806326 13.4899 0.56523 13.9145C0.324134 14.3391 0.198218 14.8194 0.199969 15.3077C0.199969 16.845 1.42763 18.0938 2.93878 18.0938H4.41872V20.625C3.49059 20.625 2.73122 21.3844 2.73122 22.3125H26.3562C26.3561 22.0708 26.304 21.832 26.2036 21.6122C26.1031 21.3924 25.9566 21.1967 25.774 21.0384C25.9417 20.7808 26.0736 20.5052 26.1698 20.2116C26.3815 19.5854 26.4127 18.9123 26.2596 18.2693C26.1064 17.6262 25.7753 17.0394 25.3041 16.5758L25.2982 16.5708C25.2342 16.5083 25.1678 16.4483 25.099 16.3911ZM11.599 3.25725V5.02238L9.06778 7.51903V3.25725C9.06745 3.21149 9.07613 3.16611 9.09334 3.1237C9.11054 3.0813 9.13593 3.0427 9.16805 3.0101C9.20018 2.97751 9.23841 2.95156 9.28056 2.93374C9.32271 2.91592 9.36796 2.90658 9.41372 2.90625H11.2615C11.307 2.90622 11.352 2.91537 11.3939 2.93317C11.4357 2.95097 11.4736 2.97704 11.5051 3.00983C11.5366 3.04261 11.5612 3.08143 11.5773 3.12395C11.5935 3.16646 11.6009 3.21181 11.599 3.25725ZM8.22403 20.625V11.5294L15.8034 4.05797L23.4031 11.542V13.0313H23.4115V15.6089C22.9889 15.54 22.5572 15.5483 22.1375 15.6334V12.7916C22.1366 12.6317 22.0726 12.4785 21.9595 12.3654C21.8464 12.2523 21.6933 12.1884 21.5333 12.1875H18.5228C18.3629 12.1884 18.2097 12.2523 18.0966 12.3654C17.9835 12.4785 17.9196 12.6317 17.9187 12.7916V15.8021C17.9196 15.9621 17.9835 16.1152 18.0966 16.2283C18.2097 16.3414 18.3629 16.4054 18.5228 16.4063H20.5622C20.2004 16.7159 19.9031 17.0938 19.6872 17.5183C19.234 17.6723 18.832 17.9484 18.5258 18.3163C18.2195 18.6842 18.0208 19.1296 17.9516 19.6032C17.9381 19.6623 17.9308 19.7225 17.9297 19.7838C17.9219 19.8516 17.9182 19.9198 17.9187 19.988V19.9964C17.9193 20.2141 17.9449 20.4236 17.9955 20.625H17.075C17.075 20.1618 16.7695 19.7813 16.3974 19.7813H16.2295V13.1342C16.2295 12.6102 15.8439 12.1875 15.3655 12.1875H12.0327C11.5543 12.1875 11.1687 12.6102 11.1687 13.1342V19.7813H11.0025C10.6313 19.7813 10.325 20.1618 10.325 20.625H8.22403ZM18.8806 20.625C19.0147 20.9701 19.2569 21.2603 19.564 21.4603H24.095V21.4688L24.1102 21.4603C24.5161 21.2423 24.8572 20.921 25.099 20.5288C25.2115 20.346 25.3015 20.1514 25.369 19.9449C25.532 19.4684 25.5566 18.9556 25.4401 18.4656C25.3237 17.9757 25.0708 17.5288 24.7109 17.1766C24.2132 16.6819 23.5395 16.4048 22.8378 16.4063C21.7831 16.4063 20.8634 17.0323 20.4247 17.9301C20.3812 18.0215 20.3189 18.1026 20.2418 18.1682C20.1647 18.2338 20.0746 18.2823 19.9775 18.3106C19.3362 18.5139 18.8637 19.0902 18.7793 19.7753C18.7709 19.7922 18.7709 19.8091 18.7793 19.826C18.7625 19.8766 18.7625 19.9357 18.7625 19.9956C18.7625 20.2183 18.8047 20.4301 18.8806 20.625ZM14.9656 17.25C15.0775 17.25 15.1848 17.2056 15.2639 17.1264C15.343 17.0473 15.3875 16.94 15.3875 16.8281C15.3875 16.7162 15.343 16.6089 15.2639 16.5298C15.1848 16.4507 15.0775 16.4063 14.9656 16.4063C14.8537 16.4063 14.7464 16.4507 14.6673 16.5298C14.5882 16.6089 14.5437 16.7162 14.5437 16.8281C14.5437 16.94 14.5882 17.0473 14.6673 17.1264C14.7464 17.2056 14.8537 17.25 14.9656 17.25Z" fill="white"/>
</svg>
