<svg width="19" height="16" viewBox="0 0 19 16" fill="none" xmlns="http://www.w3.org/2000/svg">
<path d="M6.1332 1.33332V12.1667M12.1082 3.51666V14.6667M0.908203 4.48332V12.5917C0.908203 14.175 2.0332 14.825 3.39987 14.0417L5.3582 12.925C5.7832 12.6833 6.49154 12.6583 6.9332 12.8833L11.3082 15.075C11.7499 15.2917 12.4582 15.275 12.8832 15.0333L16.4915 12.9667C16.9499 12.7 17.3332 12.05 17.3332 11.5167V3.40832C17.3332 1.82499 16.2082 1.17499 14.8415 1.95832L12.8832 3.07499C12.4582 3.31666 11.7499 3.34166 11.3082 3.11666L6.9332 0.933323C6.49154 0.716656 5.7832 0.733323 5.3582 0.97499L1.74987 3.04166C1.2832 3.30832 0.908203 3.95832 0.908203 4.48332Z" stroke="white" stroke-width="1.5" stroke-linecap="round" stroke-linejoin="round"/>
</svg>
