<svg width="23" height="23" viewBox="0 0 23 23" fill="none" xmlns="http://www.w3.org/2000/svg">
<path d="M11.5 0.53125C5.452 0.53125 0.53125 5.452 0.53125 11.5C0.53125 17.548 5.452 22.4688 11.5 22.4688C17.548 22.4688 22.4688 17.548 22.4688 11.5C22.4688 5.452 17.548 0.53125 11.5 0.53125ZM11.5 2.21875C16.6359 2.21875 20.7812 6.36409 20.7812 11.5C20.7812 16.6359 16.6359 20.7812 11.5 20.7812C6.36409 20.7812 2.21875 16.6359 2.21875 11.5C2.21875 6.36409 6.36409 2.21875 11.5 2.21875ZM10.6562 6.4375V10.6562H6.4375V12.3438H10.6562V16.5625H12.3438V12.3438H16.5625V10.6562H12.3438V6.4375H10.6562Z" fill="white"/>
</svg>
