<svg width="16" height="22" viewBox="0 0 16 22" fill="none" xmlns="http://www.w3.org/2000/svg">
<path fill-rule="evenodd" clip-rule="evenodd" d="M8 0.297241C10.3883 0.297241 12.3243 2.23331 12.3243 4.62157V10.6756C12.3243 13.0639 10.3883 14.9999 8 14.9999C5.61174 14.9999 3.67568 13.0639 3.67568 10.6756V4.62157C3.67568 2.23331 5.61174 0.297241 8 0.297241ZM15.3514 10.027C15.7096 10.027 16 10.3174 16 10.6756C16 14.6565 12.7569 17.9062 8.64945 18.2186L8.64865 21.054C8.64865 21.4122 8.35824 21.7026 8 21.7026C7.67161 21.7026 7.40022 21.4586 7.35727 21.142L7.35135 21.054L7.35142 18.2187C3.24354 17.9066 0 14.6568 0 10.6756C0 10.3174 0.29041 10.027 0.648649 10.027C1.00689 10.027 1.2973 10.3174 1.2973 10.6756C1.2973 14.1295 4.2897 16.9459 8 16.9459C11.7103 16.9459 14.7027 14.1295 14.7027 10.6756C14.7027 10.3174 14.9931 10.027 15.3514 10.027ZM4.97297 4.62157C4.97297 2.94978 6.32822 1.59454 8 1.59454C9.67178 1.59454 11.027 2.94978 11.027 4.62157V10.6756C11.027 12.3474 9.67178 13.7026 8 13.7026C6.32822 13.7026 4.97297 12.3474 4.97297 10.6756V4.62157Z" fill="#858E99"/>
</svg>
