<svg width="20" height="20" viewBox="0 0 20 20" fill="none" xmlns="http://www.w3.org/2000/svg">
<path d="M18.3337 18.3333L16.667 16.6667M9.58366 17.5C10.6233 17.5 11.6527 17.2952 12.6132 16.8974C13.5737 16.4995 14.4465 15.9164 15.1816 15.1813C15.9167 14.4461 16.4999 13.5734 16.8977 12.6129C17.2956 11.6524 17.5003 10.623 17.5003 9.58332C17.5003 8.54369 17.2956 7.51424 16.8977 6.55375C16.4999 5.59325 15.9167 4.72052 15.1816 3.98539C14.4465 3.25026 13.5737 2.66713 12.6132 2.26928C11.6527 1.87143 10.6233 1.66666 9.58366 1.66666C7.48403 1.66666 5.47039 2.50073 3.98573 3.98539C2.50107 5.47006 1.66699 7.48369 1.66699 9.58332C1.66699 11.683 2.50107 13.6966 3.98573 15.1813C5.47039 16.6659 7.48403 17.5 9.58366 17.5Z" stroke="#202020" stroke-linecap="round" stroke-linejoin="round"/>
</svg>
