<svg width="16" height="16" viewBox="0 0 16 16" fill="none" xmlns="http://www.w3.org/2000/svg">
<g clip-path="url(#clip0_669_557)">
<path d="M11.3135 8.16666V11.1667C11.3135 13.6667 10.3135 14.6667 7.81348 14.6667H4.81348C2.31348 14.6667 1.31348 13.6667 1.31348 11.1667V8.16666C1.31348 5.66666 2.31348 4.66666 4.81348 4.66666H7.81348C10.3135 4.66666 11.3135 5.66666 11.3135 8.16666Z" stroke="#202020" stroke-linecap="round" stroke-linejoin="round"/>
<path d="M14.6468 3.9V6.1C14.6468 7.93334 13.9135 8.66667 12.0801 8.66667H11.3135V8.16667C11.3135 5.66667 10.3135 4.66667 7.81348 4.66667H7.31348V3.9C7.31348 2.06667 8.04681 1.33334 9.88014 1.33334H12.0801C13.9135 1.33334 14.6468 2.06667 14.6468 3.9Z" stroke="#202020" stroke-linecap="round" stroke-linejoin="round"/>
</g>
<defs>
<clipPath id="clip0_669_557">
<rect width="16" height="16" fill="white"/>
</clipPath>
</defs>
</svg>
