<svg width="18" height="20" viewBox="0 0 18 20" fill="none" xmlns="http://www.w3.org/2000/svg">
<path d="M16.0695 11.7966L11.5369 16.3292C9.36478 18.5013 5.84302 18.5013 3.67086 16.3292C1.4987 14.157 1.4987 10.6352 3.67086 8.46308L9.77209 2.36185C11.2213 0.912638 13.5709 0.912638 15.0201 2.36185C16.4693 3.81105 16.4693 6.16068 15.0201 7.60989L8.72669 13.9033C8.0458 14.5842 6.94186 14.5842 6.26097 13.9033C5.58008 13.2224 5.58008 12.1185 6.26097 11.4376L10.9858 6.71281C11.2257 6.47287 11.2257 6.08384 10.9858 5.8439C10.7458 5.60396 10.3568 5.60396 10.1169 5.8439L5.39206 10.5687C4.23129 11.7295 4.23129 13.6115 5.39206 14.7722C6.55284 15.933 8.43482 15.933 9.5956 14.7722L15.889 8.4788C17.8181 6.54971 17.8181 3.42203 15.889 1.49294C13.96 -0.436156 10.8323 -0.436155 8.90318 1.49294L2.80195 7.59417C0.149906 10.2462 0.149906 14.546 2.80195 17.1981C5.45399 19.8501 9.7538 19.8501 12.4058 17.1981L16.9384 12.6655C17.1784 12.4255 17.1784 12.0365 16.9384 11.7966C16.6985 11.5566 16.3095 11.5566 16.0695 11.7966Z" fill="#858E99"/>
</svg>
