<svg width="16" height="16" viewBox="0 0 16 16" fill="none" xmlns="http://www.w3.org/2000/svg">
<path fill-rule="evenodd" clip-rule="evenodd" d="M7.49538 -0.0020752C9.22869 -0.0020752 15.9348 6.71765 16 8.31987C15.7878 12.5529 12.2955 16.002 8.00914 16.002C3.58581 16.002 0 12.4162 0 7.9929C0 3.79449 3.38456 0.337298 7.49538 -0.0020752ZM6.86629 1.28089C3.65062 1.82417 1.20138 4.62251 1.20138 7.99291C1.20138 11.7527 4.24932 14.8007 8.00915 14.8007C11.3795 14.8007 14.1777 12.3516 14.7214 9.13593L14.7706 9.11492C14.0471 9.42379 13.2506 9.59474 12.4142 9.59474C9.09668 9.59474 6.40732 6.90538 6.40732 3.58788C6.40732 2.84927 6.54063 2.1418 6.7845 1.48821L6.86629 1.28089ZM8.01865 1.64179L8.12516 1.41762L8.22856 1.46995C8.37197 1.54523 8.53706 1.64243 8.71856 1.76046C9.46825 2.24795 10.3277 3.11628 11.2431 4.04105C11.3641 4.16333 11.4861 4.2866 11.609 4.4101C11.7316 4.53331 11.8536 4.65539 11.9745 4.77627C12.8916 5.69353 13.7398 6.54189 14.2222 7.29366C14.3684 7.52139 14.482 7.72318 14.561 7.88868C13.9025 8.21826 13.1723 8.39335 12.4142 8.39335C9.76018 8.39335 7.60869 6.24186 7.60869 3.58787C7.60869 2.90591 7.75038 2.24657 8.01865 1.64179Z" fill="#858E99"/>
</svg>
